<?xml version="1.0" encoding="UTF-8"?> <svg xmlns="http://www.w3.org/2000/svg" width="243" height="57" fill="none"><path d="M4.162 21.473h29.147C30.913 14.803 24.4 10 16.753 10 9.107 10 2.593 14.802.197 21.473h3.965zM18.43 32.251a15.79 15.79 0 01-1.678-2.455c-.48.87-1.045 1.695-1.677 2.455H0c2.222 6.976 8.888 12.06 16.752 12.06 7.864 0 14.53-5.063 16.752-12.06H18.43z" fill="#F2E437"></path><path d="M10.237 23.755l-1.742 1.738-1.743-1.738a.79.79 0 00-1.111 0 .786.786 0 000 1.108L7.384 26.6 5.64 28.34a.786.786 0 000 1.108.79.79 0 001.11 0l1.744-1.739 1.742 1.739a.79.79 0 001.111 0 .785.785 0 000-1.108L9.606 26.6l1.742-1.738a.786.786 0 000-1.108.79.79 0 00-1.11 0zm14.271 6.954a4.053 4.053 0 01-4.052-4.042 4.053 4.053 0 018.104 0c.022 2.238-1.808 4.041-4.052 4.041zm0-6.39a2.354 2.354 0 00-2.353 2.348 2.354 2.354 0 004.706 0 2.34 2.34 0 00-2.353-2.347zm156.651-12.244c0 .956-.654 1.434-1.961 1.434h-18.016c-1.307 0-1.96-.543-1.96-1.652 0-1.021.653-1.542 1.96-1.542h18.321c1.111.021 1.656.586 1.656 1.76zm0 18.6c0 .956-.654 1.434-1.961 1.434h-18.016c-1.307 0-1.96-.543-1.96-1.651 0-1.021.653-1.543 1.96-1.543h18.321c1.111 0 1.656.587 1.656 1.76zM125.521 10.27c.958 0 1.437.652 1.437 1.956v17.97c0 1.305-.544 1.935-1.633 1.935-1.024 0-1.547-.652-1.547-1.934V11.9c-.022-1.086.566-1.63 1.743-1.63zm55.638 11.192c0 .956-.654 1.434-1.961 1.434h-18.016c-1.307 0-1.96-.543-1.96-1.63 0-1.021.653-1.543 1.96-1.543h18.321c1.111-.021 1.656.565 1.656 1.739zm-27.059-9.67c0 .173-.065.521-.196 1.02-1.612 1.609-6.949 6.998-16.011 16.168h14.595c1.09.13 1.634.608 1.634 1.412 0 1.152-.653 1.739-1.939 1.739h-17.841c-1.285 0-1.939-.5-1.939-1.521 0-.109.066-.413.196-.935 1.612-1.608 6.95-6.997 16.012-16.167h-14.269c-1.285 0-1.939-.5-1.939-1.52 0-1.087.545-1.63 1.634-1.63h18.43c1.089.151 1.633.63 1.633 1.434zm33.266-1.435c.937 0 1.416.652 1.416 1.934V28.98h15.401V11.987c0-1.086.588-1.63 1.743-1.63.937 0 1.416.652 1.416 1.934v18.406c0 .869-.654 1.347-1.939 1.434h-18.342c-.763 0-1.242-.587-1.438-1.739V11.987c0-1.086.588-1.63 1.743-1.63zM64.458 12.14c0 .934-.654 1.412-1.939 1.412h-16.73v15.363h17.035c1.09 0 1.634.587 1.634 1.739 0 .934-.654 1.412-1.939 1.412H44.068c-.872 0-1.351-.652-1.438-1.934V11.835c0-.76.588-1.238 1.743-1.434h18.45c1.09.022 1.635.587 1.635 1.739zm25.16-1.783h-18.56c-1.154 0-1.743.544-1.743 1.63v18.405c.175 1.152.654 1.739 1.438 1.739h18.343c1.285-.087 1.938-.565 1.938-1.434V12.29c0-1.282-.457-1.934-1.416-1.934zm-17.144 3.02h15.402V28.98H72.474V13.378zm141.076-3.019h.218c.784 0 1.917 1.325 3.376 3.976.436.5 3.355 4.933 8.714 13.277h.109c0-.13 3.66-5.715 10.958-16.753.544-.348.915-.522 1.132-.522h.196c.676 0 1.155.521 1.438 1.543v.195c0 .348-1.917 3.369-5.729 9.105 3.812 5.802 5.729 8.866 5.729 9.192v.304c-.283.956-.762 1.434-1.438 1.434h-.196c-.827 0-2.134-1.608-3.899-4.802-1.067-1.478-1.743-2.52-2.048-3.15-.065 0-1.742 2.476-5.01 7.453-.392.347-.741.521-1.046.521h-.305c-.719 0-2.069-1.738-4.095-5.215l-1.939-2.76c-2.832 4.607-4.575 7.193-5.228 7.758l-.719.195h-.218c-.697 0-1.176-.521-1.438-1.543v-.195c0-.326 1.917-3.39 5.73-9.192v-.108c-3.508-5.085-5.425-8.084-5.73-8.997v-.195c.284-1 .763-1.521 1.438-1.521zm-96.481 18.6h-17.1V12.291c0-1.282-.48-1.934-1.417-1.934-1.154 0-1.742.544-1.742 1.63V30.48c0 .587.196 1.022.588 1.282.218.218.5.348.85.348h18.538c1.307 0 1.96-.478 1.96-1.434-.021-1.152-.566-1.717-1.677-1.717z" fill="#fff"></path><path d="M48.122 45.322h-1.046l-3.115-3.151h-.654v3.15h-.762v-6.779h.762v2.955h.676l2.766-2.955h1.002l-3.093 3.281 3.464 3.499zm12.743 0h-.74v-6.107l-3.813 6.106H55.07v-6.758h.741v6.172l3.812-6.172h1.242v6.758zm12.59-1.956c0 .435-.065.782-.174 1.087-.11.282-.305.5-.567.63-.283.152-.631.217-1.067.217h-3.224v-6.758h4.596v.674h-3.856v1.999h2.026c.502 0 .894.043 1.177.108.283.066.523.174.675.326.153.152.261.37.327.63.065.283.087.63.087 1.087zm-.762-.152c0-.304-.022-.565-.088-.76a.768.768 0 00-.305-.413c-.13-.087-.283-.13-.5-.153a6.952 6.952 0 00-.828-.043h-1.808v2.781h2.418c.326 0 .566-.043.74-.152a.693.693 0 00.305-.456c.044-.152.066-.435.066-.804zm12.547-3.998h-3.615v2.303h3.442v.652h-3.442v2.477h3.594v.674h-4.357v-6.78h4.379v.674zm12.289 1.281c0 .456-.044.804-.11 1.087a1.33 1.33 0 01-.348.652 1.504 1.504 0 01-.697.347 5.557 5.557 0 01-1.133.109h-2.026v2.651h-.74v-6.758h3.224c.435 0 .806.065 1.089.217.261.13.436.348.566.63.11.261.175.63.175 1.065zm-.763.152c0-.326-.022-.586-.065-.825a.612.612 0 00-.327-.435c-.152-.109-.414-.152-.74-.152h-2.397v2.781h1.83c.436 0 .762-.021 1.024-.087a.722.722 0 00.523-.369c.087-.217.152-.522.152-.913zm22.436 2.412c0 .522-.022.935-.087 1.217-.066.304-.175.522-.349.674-.196.174-.436.282-.762.326-.349.065-.85.087-1.46.087-.675 0-1.155-.044-1.481-.109-.327-.065-.588-.217-.763-.434-.174-.218-.305-.544-.37-1a18.831 18.831 0 01-.087-1.89c0-.826.022-1.457.087-1.891.065-.435.174-.76.37-.978.175-.239.436-.37.763-.456.305-.066.806-.109 1.481-.109.61 0 1.089.044 1.394.109.327.065.588.174.741.347.174.174.283.37.327.63.065.24.109.63.13 1.109h-.74a12.593 12.593 0 00-.109-.87.832.832 0 00-.196-.39c-.109-.11-.262-.174-.501-.218-.262-.043-.61-.043-1.068-.043-.523 0-.893.021-1.154.087-.24.065-.436.173-.545.369-.109.152-.174.391-.218.739a28.88 28.88 0 00-.043 1.564c0 .76.021 1.304.043 1.587.044.326.109.586.218.739.109.173.283.282.545.347.239.065.631.087 1.154.087a14.2 14.2 0 001.111-.043c.24-.022.414-.087.545-.196.131-.109.196-.26.239-.456.044-.24.044-.565.044-.956h.741v.021zm12.571 2.261h-.763v-6.106h-3.965v6.106h-.74v-6.78h5.468v6.78zm13.222-3.369c0 .847-.043 1.477-.109 1.869-.065.434-.196.76-.392.977-.174.218-.457.37-.828.457a9.678 9.678 0 01-1.546.108 9.682 9.682 0 01-1.547-.108c-.349-.087-.632-.24-.828-.456-.196-.218-.305-.544-.392-1-.065-.413-.109-1.043-.109-1.869.022-.912.044-1.543.109-1.869.065-.434.196-.76.392-.977.174-.218.458-.37.828-.457.37-.065.893-.108 1.547-.108.653 0 1.176.043 1.546.108.349.087.632.24.828.456.196.218.305.544.392.978.087.413.109 1.043.109 1.89zm-.762 0c0-.717-.022-1.26-.066-1.586-.021-.326-.109-.587-.239-.761a1.027 1.027 0 00-.588-.348c-.24-.065-.632-.087-1.199-.087-.566 0-.958.022-1.198.087-.261.044-.457.152-.588.326-.131.174-.218.435-.239.76-.044.327-.066.848-.066 1.587 0 .696.022 1.217.066 1.565.043.347.13.608.239.782a.904.904 0 00.588.348c.262.043.676.087 1.198.087.589-.022.981-.044 1.199-.087a.904.904 0 00.588-.348 1.5 1.5 0 00.239-.76c.044-.327.066-.848.066-1.565zm13.29-1.456c0 .456-.044.804-.109 1.087a1.34 1.34 0 01-.349.652 1.502 1.502 0 01-.697.347 5.556 5.556 0 01-1.133.109h-2.026v2.651h-.74v-6.758h3.224c.436 0 .806.065 1.089.217.261.13.436.348.566.63.131.261.175.63.175 1.065zm-.763.152c0-.326-.021-.586-.065-.825a.614.614 0 00-.327-.435c-.152-.109-.414-.152-.74-.152h-2.397v2.781h1.83c.436 0 .763-.021 1.024-.087a.721.721 0 00.523-.369c.109-.217.152-.522.152-.913zm12.614-1.412h-2.179v6.085h-.762v-6.085h-2.222v-.695h5.163v.695zm22.044 6.085h-.806l-.523-1.391h-3.42l-.523 1.39h-.806l2.461-6.758h1.09l2.527 6.758zm-1.569-2.065l-1.503-4.15-1.503 4.15h3.006zm13.66-2.76c0 .456-.044.804-.109 1.087-.065.282-.196.5-.348.652a1.51 1.51 0 01-.698.347 5.546 5.546 0 01-1.132.109h-2.026v2.651h-.741v-6.758h3.224c.436 0 .806.065 1.089.217.262.13.436.348.567.63.109.261.174.63.174 1.065zm-.762.152c0-.326-.022-.586-.066-.825a.61.61 0 00-.327-.435c-.152-.109-.413-.152-.74-.152h-2.396v2.781h1.829c.436 0 .763-.021 1.024-.087a.721.721 0 00.523-.369c.087-.217.153-.522.153-.913zm12.329-1.433h-3.616v2.303h3.442v.652h-3.442v2.477h3.594v.674h-4.357v-6.78h4.379v.674zm12.721 6.106h-.741v-3.108h-3.986v3.108h-.741v-6.78h.741v2.999h3.986v-2.999h.741v6.78zm13.202 0h-.806l-.523-1.391h-3.42l-.523 1.39h-.806l2.462-6.758h1.089l2.527 6.758zm-1.547-2.065l-1.503-4.15-1.503 4.15h3.006z" fill="#F2E437"></path></svg> 